<?xml version="1.0" encoding="utf-8"?>
<!-- Generator: Adobe Illustrator 21.1.0, SVG Export Plug-In . SVG Version: 6.00 Build 0)  -->
<svg version="1.1" id="Capa_1" xmlns="http://www.w3.org/2000/svg" xmlns:xlink="http://www.w3.org/1999/xlink" x="0px" y="0px"
	 viewBox="0 0 512 512" style="enable-background:new 0 0 512 512;" xml:space="preserve">
<g>
	<path d="M444.1,350.8l-48.6,69.8l-34.3-28.1c-3.7-3.1-9.2-2.5-12.2,1.2c-3,3.7-2.5,9.2,1.2,12.2l41.5,34.1c1.6,1.3,3.5,2,5.5,2
		c0.4,0,0.8,0,1.2-0.1c2.4-0.3,4.5-1.6,5.9-3.6l53.9-77.5c2.7-3.9,1.8-9.3-2.2-12.1C452.3,345.9,446.9,346.9,444.1,350.8z"/>
	<path d="M451.3,299.2v-169V43.4c0-4.8-3.9-8.7-8.7-8.7h-43.4v-26c0-4.8-3.9-8.7-8.7-8.7h-60.7c-4.8,0-8.7,3.9-8.7,8.7v26H130.2v-26
		c0-4.8-3.9-8.7-8.7-8.7H60.7c-4.8,0-8.7,3.9-8.7,8.7v26H8.7c-4.8,0-8.7,3.9-8.7,8.7v86.8V486c0,4.8,3.9,8.7,8.7,8.7h330.7
		c17.4,10.9,37.9,17.4,59.8,17.4c62.2,0,112.8-50.6,112.8-112.8C512,355.8,487.3,318.1,451.3,299.2z M338.4,17.4h43.4v26v26h-43.4
		v-26V17.4z M69.4,17.4h43.4v26v26H69.4v-26V17.4z M17.4,52.1h34.7v26c0,4.8,3.9,8.7,8.7,8.7h60.7c4.8,0,8.7-3.9,8.7-8.7v-26h190.9
		v26c0,4.8,3.9,8.7,8.7,8.7h60.7c4.8,0,8.7-3.9,8.7-8.7v-26h34.7v69.4H17.4V52.1z M17.4,477.3V138.8h416.5v153
		c-1.7-0.5-3.4-1-5.2-1.5c-1.6-0.4-3.2-0.9-4.8-1.2c-1.5-0.3-3-0.6-4.4-0.9c-2.1-0.4-4.2-0.7-6.4-1c-1.2-0.1-2.4-0.3-3.6-0.4
		c-3.4-0.3-6.9-0.5-10.3-0.5c-2.9,0-5.8,0.2-8.7,0.4v-9.1v-17.4v-78.1h-78.1h-17.4h-60.7h-17.4h-60.7h-17.4H60.7v78.1v17.4v60.7
		v17.4v78.1h78.1h17.4h60.7h17.4h57.6c0.3,0.8,0.6,1.5,0.8,2.3c0.7,2.1,1.4,4.2,2.3,6.3c0.5,1.2,1,2.3,1.6,3.4c1,2.2,2,4.4,3.2,6.5
		c0.5,0.9,1.1,1.8,1.6,2.7c1.3,2.2,2.6,4.5,4,6.6c0.5,0.8,1.1,1.5,1.7,2.3c1.5,2.2,3.1,4.3,4.8,6.4c0.6,0.8,1.3,1.5,1.9,2.2
		c1.3,1.6,2.6,3.2,4.1,4.7L17.4,477.3L17.4,477.3z M349.8,297.9c-0.9,0.5-1.9,0.9-2.8,1.4c-1.6,0.9-3.2,1.8-4.8,2.7
		c-1.4,0.8-2.8,1.6-4.1,2.5c-1.4,0.9-2.7,1.8-4,2.7c-1.5,1.1-3,2.2-4.4,3.3c-1.2,0.9-2.3,1.8-3.4,2.8c-1.5,1.3-3,2.6-4.4,4
		c-1,0.9-2,1.9-3,2.8c-1.6,1.6-3.1,3.3-4.5,5c-0.6,0.7-1.3,1.4-1.9,2.1v-49.5h60.7v11.8c-0.1,0-0.3,0.1-0.4,0.1
		C364.7,291.6,357.1,294.4,349.8,297.9z M291.3,366.2c-0.3,1-0.5,2-0.8,3c-0.7,2.5-1.4,5-1.9,7.6c-0.4,2-0.6,4.1-0.9,6.1
		c-0.2,1.6-0.6,3.3-0.7,4.9c-0.4,3.7-0.6,7.5-0.6,11.3c0,3.1,0.2,6.3,0.5,9.5c0.1,0.6,0.1,1.2,0.1,1.8c0.1,1.4,0.4,2.8,0.6,4.2v0
		c0.1,0.7,0.1,1.3,0.2,2h-53.5v-60.7h60.7v0.1c-0.1,0.2-0.1,0.4-0.2,0.6C293.5,359.7,292.3,362.9,291.3,366.2z M78.1,355.8h60.7
		v60.7H78.1V355.8z M78.1,277.7h60.7v60.7H78.1V277.7z M373.2,260.3h-60.7v-60.7h60.7V260.3z M295.1,260.3h-60.7v-60.7h60.7V260.3z
		 M295.1,338.4h-60.7v-60.7h60.7V338.4z M156.2,277.7h60.7v60.7h-60.7V277.7z M216.9,260.3h-60.7v-60.7h60.7V260.3z M138.8,260.3
		H78.1v-60.7h60.7V260.3z M156.2,355.8h60.7v60.7h-60.7V355.8z M399.2,494.6c-19.6,0-37.8-6-53-16.1c-3-2-5.8-4.1-8.4-6.4
		c-0.9-0.8-1.8-1.6-2.7-2.5c-1.7-1.6-3.4-3.2-4.9-4.8c-1-1.1-2-2.2-3-3.3c-1.4-1.6-2.8-3.3-4.1-5.1c-0.8-1.1-1.7-2.2-2.5-3.3
		c-1.9-2.8-3.7-5.6-5.3-8.6c-0.4-0.7-0.7-1.4-1-2.1c-1.3-2.5-2.4-5-3.5-7.6c-0.5-1.1-0.8-2.3-1.3-3.4c-0.8-2.3-1.6-4.6-2.2-6.9
		c-0.1-0.5-0.3-1.1-0.4-1.6c-1-3.8-1.7-7.6-2.2-11.4c0-0.3-0.1-0.5-0.1-0.8c-0.5-3.9-0.8-7.8-0.8-11.6c0-3.3,0.2-6.6,0.5-9.8
		c0-0.3,0.1-0.5,0.1-0.8c0.3-3,0.8-5.9,1.4-8.8c0.1-0.3,0.2-0.5,0.2-0.8c0.6-2.9,1.4-5.7,2.3-8.6c0.1-0.3,0.3-0.7,0.4-1
		c0.9-2.7,1.9-5.4,3-8c1.1-2.5,2.2-4.9,3.5-7.3l0.9-1.5c0.3-0.6,0.8-1.2,1.1-1.8c1.5-2.5,3.1-5,4.8-7.4c0.4-0.6,0.9-1.2,1.3-1.8
		c1.6-2.1,3.2-4.1,4.9-6c0.6-0.7,1.2-1.3,1.8-2c1.7-1.8,3.5-3.5,5.3-5.2c0.7-0.6,1.3-1.2,2-1.8c2.2-1.8,4.4-3.6,6.7-5.2
		c0.4-0.3,0.7-0.5,1.1-0.8c11.3-7.8,24.3-13.2,38.3-15.5l0.2,0c5.1-0.9,10.4-1.4,15.7-1.4c3.4,0,6.7,0.2,10.1,0.5
		c0.5,0.1,1,0.2,1.5,0.2c2.8,0.4,5.7,0.8,8.5,1.4c0.3,0.1,0.7,0.2,1,0.3c3,0.7,5.9,1.5,8.9,2.5c0.2,0.1,0.4,0.1,0.6,0.2
		c3,1,5.9,2.2,8.9,3.5c33,15,56,48.3,56,86.8C494.6,451.8,451.8,494.6,399.2,494.6z"/>
</g>
</svg>
