<?xml version="1.0" encoding="utf-8"?>
<!-- Generator: Adobe Illustrator 21.1.0, SVG Export Plug-In . SVG Version: 6.00 Build 0)  -->
<svg version="1.1" id="Layer_1" xmlns="http://www.w3.org/2000/svg" xmlns:xlink="http://www.w3.org/1999/xlink" x="0px" y="0px"
	 viewBox="0 0 511.3 511.3" style="enable-background:new 0 0 511.3 511.3;" xml:space="preserve">
<style type="text/css">
	.st0{fill:#595959;}
</style>
<path class="st0" d="M444.4,251.7c-5.3-29.9-16-53.3-35.2-76.8c5.3,20.3,2.1,41.6-4.3,61.9c-6.4,20.3-17.1,38.4-26.7,56.5
	c-1.1-35.2-18.1-67.2-36.3-98.1s-38.4-60.8-48-94.9c-9.6-34.1-6.4-74.7,18.1-100.3C263,18.1,216.1,44.8,182,85.3
	c-34.1,40.5-51.2,96-40.5,147.2c-18.1-20.3-27.7-48-25.6-74.7c-24.5,30.9-41.6,67.2-49.1,105.6c-7.5,38.4-3.2,78.9,11.7,114.1
	c14.9,33.1,38.4,60.8,61.9,87.5c26.9,23.5,58.2,37.1,91.6,42.9c-3.5-0.9-7-2.1-10.6-3.4c-37.3-14.9-70.4-52.3-70.4-93.9
	c-1.1-26.7,9.6-53.3,26.7-73.6c1.1,20.3,12.8,39.5,28.8,51.2c-13.9-28.8-18.1-62.9-10.7-93.9c7.5-30.9,25.6-59.7,51.2-78.9
	c-6.4,27.7,4.3,55.5,18.1,80c13.9,23.5,32,45.9,44.8,70.4c12.8,25.6,20.3,55.5,9.6,81.1c20.3-18.1,30.9-50.1,26.7-93.9
	c0,1.1,1.1,1.1,1.1,2.1c40.5,67.5-14.7,151.7-85.5,155.9c19.6,0.8,39.7-0.8,59.9-4.4c37.3-12.8,71.5-36.3,92.8-69.3
	c18.1-27.7,26.7-61.9,30.9-94.9C448.6,312.5,449.7,281.6,444.4,251.7z"/>
</svg>
