<?xml version="1.0" encoding="utf-8"?>
<!-- Generator: Adobe Illustrator 21.1.0, SVG Export Plug-In . SVG Version: 6.00 Build 0)  -->
<svg version="1.1" id="Layer_1" xmlns="http://www.w3.org/2000/svg" xmlns:xlink="http://www.w3.org/1999/xlink" x="0px" y="0px"
	 viewBox="0 0 511.3 511.3" style="enable-background:new 0 0 511.3 511.3;" xml:space="preserve">
<style type="text/css">
	.st0{opacity:0.2;fill:#F3705A;}
	.st1{opacity:0.2;fill:#FFD15C;}
</style>
<path class="st0" d="M140.4,465.1c-23.5-26.7-46.9-54.4-61.9-87.5c-14.9-35.2-19.2-75.7-11.7-114.1s24.5-74.7,49.1-105.6
	c-2.1,26.7,7.5,54.4,25.6,74.7c-10.7-51.2,6.4-106.7,40.5-147.2S263,18.1,312.1,0c-24.5,25.6-27.7,66.1-18.1,100.3
	c9.6,34.1,29.9,64,48,94.9s35.2,62.9,36.3,98.1c9.6-18.1,20.3-36.3,26.7-56.5c6.4-20.3,9.6-41.6,4.3-61.9
	c19.2,23.5,29.9,46.9,35.2,76.8s4.3,60.8,1.1,90.7c-4.3,33.1-12.8,67.2-30.9,94.9c-21.3,33.1-55.5,56.5-92.8,69.3
	C255.6,518.4,190.5,508.8,140.4,465.1z"/>
<path class="st1" d="M221.4,504.5c87.5,34.1,173.9-69.3,125.9-149.3c0-1.1-1.1-1.1-1.1-2.1c4.3,43.7-6.4,75.7-26.7,93.9
	c10.7-25.6,3.2-55.5-9.6-81.1c-12.8-24.5-30.9-46.9-44.8-70.4c-13.9-24.5-24.5-52.3-18.1-80c-25.6,19.2-43.7,48-51.2,78.9
	s-3.2,65.1,10.7,93.9c-16-11.7-27.7-30.9-28.8-51.2C160.6,357.3,150,384,151,410.7C151,452.3,184.1,489.6,221.4,504.5z"/>
</svg>
