<?xml version="1.0" encoding="utf-8"?>
<!-- Generator: Adobe Illustrator 21.1.0, SVG Export Plug-In . SVG Version: 6.00 Build 0)  -->
<svg version="1.1" id="Capa_1" xmlns="http://www.w3.org/2000/svg" xmlns:xlink="http://www.w3.org/1999/xlink" x="0px" y="0px"
	 viewBox="0 0 512 512" style="enable-background:new 0 0 512 512;" xml:space="preserve">
<style type="text/css">
	.st0{opacity:0.2;}
	.st1{fill:#303C42;}
	.st2{fill:#F3F3F3;}
	.st3{opacity:0.1;fill:#010101;enable-background:new    ;}
	.st4{opacity:0.2;fill:#FFFFFF;enable-background:new    ;}
	.st5{fill:url(#SVGID_1_);}
</style>
<g class="st0">
	<path class="st1" d="M0,266.8l0,124.4c0,32.2,20.5,60.7,51.1,70.8l7.5,2.5c52,17.3,106.2,26.1,161.1,26.1H235
		c88.5,0,175.9-23.2,252.7-67.1c19.2-11,28.5-33.1,22.6-53.9c-2.8-9.7-4.2-22.8-4.2-39c0-28.2-13.8-73.9-41-135.8
		c-22.6-51.4-54.7-98.2-95.6-139.1c-22.2-22.2-51.7-34.4-83.1-34.4c-15.1,0-29.6,4.4-42.1,12.8l-25.9,17.3
		c-8,5.3-13.1,13.9-14.1,23.5c-0.7,7.5,1.2,14.8,5.3,20.8c-11.6,12.5-11.6,32.1,0.6,44.3l42.7,42.7c6,6,14.1,9.4,22.6,9.4l53.9,0
		c-0.1,11.2-2,24.6-4,38.5c-2.3,16.2-4.7,34.5-5.1,52.8c-20.8-17.3-47-27.3-74.9-27.3c-16.9,0-33.1,3.8-48.1,10.6
		C173.5,221.1,126.7,192,74.7,192l-3.7,0C31.8,193.1,0,226.6,0,266.8z"/>
	<path class="st2" d="M21.3,391.2V266.8c0-28.7,22.5-52.7,50.2-53.4l3.2,0c44.2,0,84,24.8,104,63.7c-5.6,3.9-11,8.1-15.9,13
		c-4.2,4.1-4.2,10.9-0.1,15.1c4.1,4.2,10.9,4.2,15.1,0.1c18.1-17.9,42.1-27.8,67.6-27.8c32.7,0,62.9,16.4,80.7,43.9
		c0.1,0.2,0.4,0.3,0.5,0.5c10.5,25.1,31.5,37.4,44.2,40.6c0.9,0.2,1.7,0.3,2.6,0.3c4.8,0,9.1-3.2,10.3-8.1c1.4-5.7-2-11.4-7.7-12.9
		c-1.4-0.4-34.7-9.7-34.7-53.7c0-18.4,2.6-36.7,5.2-54.5c4.9-34.1,9.1-63.6-8.3-81.1c-4.2-4.2-10.9-4.2-15.1,0
		c-4.2,4.2-4.2,10.9,0,15.1c0.9,0.9,1.5,2,2.2,3.1l-49.8,0c-2.8,0-5.6-1.1-7.5-3.1l-42.7-42.7c-3.7-3.7-3.9-9.4-1-13.5l23.3,23.3
		c10.1,10.2,25.6,12.6,38.4,6.2c9.7-4.8,16.2-13.7,18-24.4c1.7-10.7-1.7-21.2-9.3-28.9l-9.8-9.8c-4.2-4.2-10.9-4.2-15.1,0
		c-4.2,4.2-4.2,10.9,0,15.1l9.8,9.8c2.8,2.8,4,6.5,3.3,10.4s-3,7-6.5,8.8c-4.6,2.3-10.2,1.4-13.8-2.2l-34.1-34.1
		c-2.3-2.3-3.4-5.4-3.1-8.6c0.3-3.2,2-6,4.7-7.8l25.9-17.3c9-6,19.5-9.2,30.3-9.2c25.7,0,49.8,10,68,28.2
		c39,39,69.6,83.6,91.1,132.6c25.7,58.4,39.2,102.4,39.2,127.3c0,18.1,1.7,33.2,5,44.8c3.2,11.3-2,23.5-12.6,29.6
		c-73.6,42.1-157.3,64.3-242.1,64.3h-15.4c-52.6,0-104.5-8.4-154.3-25l-7.5-2.5C36,434.5,21.3,414.2,21.3,391.2L21.3,391.2z"/>
	<path class="st3" d="M21.6,394.3c1.3,21.7,15.4,40.5,36.2,47.5l7.5,2.5c49.8,16.6,101.8,25,154.3,25H235
		c84.8,0,168.5-22.2,242.1-64.3c10.6-6.1,15.8-18.2,12.6-29.6c-3.3-11.6-5-26.7-5-44.8c0-22-10.7-59.2-31-108
		c12.4,33.8,19,60.2,19,77.4c0,18.1,1.7,33.2,5,44.8c3.2,11.3-2,23.5-12.6,29.6c-73.6,42.1-157.3,64.3-242.1,64.3h-15.4
		c-52.6,0-104.5-8.4-154.3-25l-7.5-2.5C36,407.9,27.8,401.9,21.6,394.3z"/>
	<g>
		<path class="st4" d="M484.4,324.7c-1.8-25.6-15.1-67.1-38.8-121.3c-21.5-49-52.2-93.6-91.1-132.6c-18.2-18.2-42.3-28.2-68-28.2
			c-10.8,0-21.3,3.2-30.3,9.2l-25.9,17.3c-2.7,1.8-4.4,4.6-4.7,7.8c-0.3,3.2,0.8,6.3,3.1,8.6l5,4.9c0,0,0,0,0,0l25.9-17.3
			c9-6,19.5-9.2,30.3-9.2c25.7,0,49.8,10,68,28.2c39,39,69.6,83.6,91.1,132.6C466.9,265.8,478.8,299.5,484.4,324.7z"/>
		<path class="st4" d="M21.3,266.8v124.4c0,6.4,1.2,12.5,3.3,18.3V288.1c0-28.7,22.5-52.7,50.2-53.4l3.2,0c37.8,0,72.2,18.3,94,47.8
			c2.3-1.8,4.3-3.8,6.7-5.5c-20-38.8-59.8-63.7-104-63.7l-3.2,0C43.8,214.1,21.3,238.1,21.3,266.8z"/>
	</g>
	
		<linearGradient id="SVGID_1_" gradientUnits="userSpaceOnUse" x1="-200.6065" y1="-81.6096" x2="-178.8706" y2="-71.4731" gradientTransform="matrix(-21.3333 0 0 21.3333 -3818.8979 1926.1414)">
		<stop  offset="0" style="stop-color:#FFFFFF;stop-opacity:0.2"/>
		<stop  offset="1" style="stop-color:#FFFFFF;stop-opacity:0"/>
	</linearGradient>
	<path class="st5" d="M0,266.8l0,124.4c0,32.2,20.5,60.7,51.1,70.8l7.5,2.5c52,17.3,106.2,26.1,161.1,26.1H235
		c88.5,0,175.9-23.2,252.7-67.1c19.2-11,28.5-33.1,22.6-53.9c-2.8-9.7-4.2-22.8-4.2-39c0-28.2-13.8-73.9-41-135.8
		c-22.6-51.4-54.7-98.2-95.6-139.1c-22.2-22.2-51.7-34.4-83.1-34.4c-15.1,0-29.6,4.4-42.1,12.8l-25.9,17.3
		c-8,5.3-13.1,13.9-14.1,23.5c-0.7,7.5,1.2,14.8,5.3,20.8c-11.6,12.5-11.6,32.1,0.6,44.3l42.7,42.7c6,6,14.1,9.4,22.6,9.4l53.9,0
		c-0.1,11.2-2,24.6-4,38.5c-2.3,16.2-4.7,34.5-5.1,52.8c-20.8-17.3-47-27.3-74.9-27.3c-16.9,0-33.1,3.8-48.1,10.6
		C173.5,221.1,126.7,192,74.7,192l-3.7,0C31.8,193.1,0,226.6,0,266.8z"/>
</g>
</svg>
