<?xml version="1.0" encoding="utf-8"?>
<!-- Generator: Adobe Illustrator 21.1.0, SVG Export Plug-In . SVG Version: 6.00 Build 0)  -->
<svg version="1.1" id="Ebene_1" xmlns="http://www.w3.org/2000/svg" xmlns:xlink="http://www.w3.org/1999/xlink" x="0px" y="0px"
	 viewBox="0 0 801.5 281.4" style="enable-background:new 0 0 801.5 281.4;" xml:space="preserve">
<style type="text/css">
	.st0{fill:none;stroke:#000000;stroke-width:5.406;stroke-miterlimit:10;}
	.st1{fill:none;stroke:#000000;stroke-width:5.406;stroke-linejoin:round;stroke-miterlimit:10;}
	.st2{fill:none;stroke:#000000;stroke-width:5.406;stroke-linecap:round;stroke-linejoin:round;stroke-miterlimit:10;}
</style>
<g>
	<g>
		<g>
			<path class="st0" d="M97.8,139.4h16.5c0.7,0,1.3,0.6,1.3,1.3v60.8c0,0.7-0.6,1.3-1.3,1.3H97.8c-0.7,0-1.3-0.6-1.3-1.3v-60.8
				C96.5,140,97.1,139.4,97.8,139.4z"/>
			<path class="st0" d="M81.8,146.3h13.4c0.7,0,1.3,0.6,1.3,1.3v47.1c0,0.7-0.6,1.3-1.3,1.3H81.8c-0.7,0-1.3-0.6-1.3-1.3v-47.1
				C80.6,146.8,81.1,146.3,81.8,146.3z"/>
			<path class="st0" d="M261.6,202.8h-16.5c-0.7,0-1.3-0.6-1.3-1.3v-60.8c0-0.7,0.6-1.3,1.3-1.3h16.5c0.7,0,1.3,0.6,1.3,1.3v60.8
				C262.9,202.2,262.3,202.8,261.6,202.8z"/>
			<path class="st0" d="M277.6,195.9h-13.4c-0.7,0-1.3-0.6-1.3-1.3v-47.1c0-0.7,0.6-1.3,1.3-1.3h13.4c0.7,0,1.3,0.6,1.3,1.3v47.1
				C278.8,195.4,278.3,195.9,277.6,195.9z"/>
			<rect x="115.6" y="163.7" class="st0" width="12" height="14.8"/>
			<rect x="231.3" y="163.7" class="st0" width="12.5" height="14.8"/>
		</g>
		<g>
			<path class="st1" d="M179.5,219.6c-37.2,0-51.9-13.8-51.9-18.8V95c0-5,20-18.8,51.9-18.8S231.4,90,231.4,95v105.8
				C231.3,205.8,216.6,219.6,179.5,219.6z"/>
			<path class="st0" d="M206,201.8l-8.2,1c-5,0.6-9.2-3-9.2-8v-8.2c0-5,4.1-9.7,9.2-10.3l8.2-1c5-0.6,9.2,3,9.2,8v8.2
				C215.2,196.5,211.1,201.2,206,201.8z"/>
			<path class="st0" d="M152.4,129.8c-8.6-1.9-16.9-4.6-24.8-8.1"/>
			<path class="st0" d="M190.7,132.1c-3.7,0.3-7.4,0.5-11.2,0.5s-7.5-0.2-11.2-0.5"/>
			<path class="st0" d="M231.3,121.7c-7.8,3.5-16.1,6.2-24.6,8"/>
			<path class="st1" d="M160.2,162.6c0,0-6.2-4.1-6.2-6v-39.8c0-1.9,1.6-3.5,3.5-3.5h5.3c1.9,0,3.5,1.6,3.5,3.5v39.8
				C166.4,158.5,160.2,162.6,160.2,162.6z"/>
			<path class="st1" d="M198.7,162.6c0,0-6.2-4.1-6.2-6v-39.8c0-1.9,1.6-3.5,3.5-3.5h5.3c1.9,0,3.5,1.6,3.5,3.5v39.8
				C204.9,158.5,198.7,162.6,198.7,162.6z"/>
			<path class="st0" d="M152.9,201.8l8.2,1c5,0.6,9.2-3,9.2-8v-8.2c0-5-4.1-9.7-9.2-10.3l-8.2-1c-5-0.6-9.2,3-9.2,8v8.2
				C143.7,196.5,147.9,201.2,152.9,201.8z"/>
			<path class="st2" d="M160,85.8c0-12.3,6.8-22.3,19.1-22.3s19.1,10,19.1,22.3"/>
		</g>
	</g>
	<g>
		<line class="st2" x1="340.2" y1="92.1" x2="340.4" y2="202.4"/>
		<line class="st2" x1="359.1" y1="91.7" x2="319" y2="92.3"/>
		<path class="st2" d="M376.8,202.4L377.9,91c0,0,14-2.2,14.4,21.6s-13.7,27-13.7,27"/>
		<line class="st2" x1="401" y1="202.4" x2="384.5" y2="136.1"/>
		<polyline class="st2" points="415.2,202.4 439.6,93 449.7,202.4 		"/>
		<line class="st2" x1="421.4" y1="174.8" x2="447.5" y2="178"/>
		<polyline class="st2" points="469,92 487.6,202.4 501.3,92 		"/>
		<polyline class="st2" points="541.4,202.4 524.2,202.4 524.2,93 536.4,93 		"/>
		<line class="st2" x1="524.2" y1="144.5" x2="535.7" y2="144.5"/>
		<polyline class="st2" points="578.9,202.4 565,202.4 561.9,90.6 		"/>
		<polyline class="st2" points="611.6,92 599.6,92 604.6,202.4 		"/>
		<line class="st2" x1="602" y1="144.5" x2="614.2" y2="142.9"/>
		<line class="st2" x1="643.7" y1="92" x2="647.2" y2="202.4"/>
		<line class="st2" x1="637.8" y1="202.4" x2="655.4" y2="202.4"/>
		<line class="st2" x1="637.8" y1="92" x2="652" y2="92"/>
		<line class="st2" x1="691.2" y1="92" x2="692.3" y2="202.4"/>
		<line class="st2" x1="670.9" y1="92" x2="709.9" y2="92"/>
	</g>
</g>
</svg>
