<?xml version="1.0" encoding="utf-8"?>
<!-- Generator: Adobe Illustrator 21.1.0, SVG Export Plug-In . SVG Version: 6.00 Build 0)  -->
<svg version="1.1" id="Capa_1" xmlns="http://www.w3.org/2000/svg" xmlns:xlink="http://www.w3.org/1999/xlink" x="0px" y="0px"
	 viewBox="0 0 512 512" style="enable-background:new 0 0 512 512;" xml:space="preserve">
<style type="text/css">
	.st0{fill:#FFFFFF;}
</style>
<g>
	<g>
		<path class="st0" d="M185.4,494.9c-1.9-1.9-4.4-2.9-7.1-2.9c-2.6,0-5.2,1.1-7.1,2.9c-1.9,1.9-2.9,4.4-2.9,7.1s1.1,5.2,2.9,7.1
			c1.9,1.9,4.4,2.9,7.1,2.9c2.6,0,5.2-1.1,7.1-2.9c1.9-1.9,2.9-4.4,2.9-7.1S187.2,496.8,185.4,494.9z"/>
	</g>
</g>
<g>
	<g>
		<path class="st0" d="M354.9,415.2c-5.5,0-10,4.5-10,10c0,18.6-15.1,33.7-33.7,33.7c-5.5,0-10,4.5-10,10s4.5,10,10,10
			c29.6,0,53.7-24.1,53.7-53.7C364.9,419.6,360.4,415.2,354.9,415.2z"/>
	</g>
</g>
<g>
	<g>
		<path class="st0" d="M428,0c-46.3,0-84,37.7-84,84v120c0,42.9,32.4,78.4,74,83.4V375h-36c-15.7-22.2-41.6-36.7-70.8-36.7
			c-7.6,0-15.1,1-22.1,2.9L255.7,256h40.7c2.3,0,4.4,1.5,5.1,3.7c0.7,2.3-0.2,4-0.8,4.8c-0.6,0.8-2,2.2-4.4,2.2h-10.2
			c-5.5,0-10,4.5-10,10s4.5,10,10,10h10.2c8.2,0,15.7-3.8,20.6-10.5c4.8-6.7,6.1-15,3.6-22.8c-3.4-10.5-13.1-17.6-24.2-17.6H241
			c-3.3,0-6.4,1.6-8.3,4.4c-1.9,2.7-2.3,6.2-1.1,9.3l18.8,48h-83.1l-7.5-17.2l-2.8-7.2c-1.5-3.8-5.2-6.3-9.3-6.3h-43.5
			c-8.4,0-16.3,4.1-21,11.1c-4.7,6.9-5.7,15.8-2.7,23.6c3.8,9.8,13.1,16.1,23.6,16.1h33.1l-16.1,27.9c-10.6-4.6-22.2-7.1-34.5-7.1
			C39,338.3,0,377.3,0,425.2C0,452,12.3,476.1,31.5,492H10c-5.5,0-10,4.5-10,10s4.5,10,10,10h76.8c44.5,0,81.3-33.6,86.3-76.8h39.2
			c3.4,0,6.5-1.7,8.4-4.5c1.8-2.8,2.1-6.4,0.8-9.5l-45.3-103.5h82.2l12.1,30.9c-27.4,14.6-46.1,43.5-46.1,76.7
			c0,26.9,12.3,50.9,31.5,66.8h-35.5c-5.5,0-10,4.5-10,10s4.5,10,10,10h90.9c47.9,0,86.8-39,86.8-86.8c0-10.6-1.9-20.8-5.4-30.2
			h71.7c5.5,0,10-4.5,10-10s-4.5-10-10-10H438v-87.6c41.6-5,74-40.5,74-83.4V84C512,37.7,474.3,0,428,0z M104.2,297.6
			c-2.2,0-4.2-1.3-5-3.4c-0.9-2.3,0-4.1,0.6-5c0.6-0.9,2-2.4,4.5-2.4h36.7l4.2,10.8H104.2z M86.8,492C50,492,20,462,20,425.2
			s30-66.8,66.8-66.8c8.6,0,16.8,1.6,24.4,4.6l-33,57.2c-1.8,3.1-1.8,6.9,0,10s5.1,5,8.7,5h32.2c-4.3,13.7-17.1,23.7-32.2,23.7
			c-5.5,0-10,4.5-10,10s4.5,10,10,10c26.2,0,48.1-18.9,52.8-43.7h13.3C148.1,467.3,120.3,492,86.8,492z M104.2,415.2l24.4-42.2
			c12.8,10.3,21.8,25.2,24.4,42.2H104.2z M197,415.2h-23.9c-2.8-24.4-15.7-45.7-34.5-59.7l18.4-31.8L197,415.2z M311.2,492
			c-36.9,0-66.8-30-66.8-66.8c0-24.7,13.5-46.3,33.4-57.9l24.1,61.5c1.5,3.9,5.3,6.4,9.3,6.4c1.2,0,2.4-0.2,3.6-0.7
			c5.1-2,7.7-7.8,5.7-13L296.4,360c4.8-1.1,9.7-1.7,14.8-1.7c36.9,0,66.8,30,66.8,66.8S348,492,311.2,492z M492,204
			c0,31.9-23.4,58.4-54,63.2v-41.6l26.6-28.4c3.8-4,3.6-10.4-0.5-14.1c-4-3.8-10.4-3.6-14.1,0.5l-12,12.9v-32.2l26.6-28.4
			c3.8-4,3.6-10.4-0.5-14.1c-4-3.8-10.4-3.6-14.1,0.5l-12,12.9v-17.4c0-5.5-4.5-10-10-10s-10,4.5-10,10v45l-10.3-11
			c-3.8-4-10.1-4.2-14.1-0.5s-4.2,10.1-0.5,14.1l24.9,26.6v75.4c-30.6-4.8-54-31.3-54-63.2V84c0-35.3,28.7-64,64-64s64,28.7,64,64
			V204z"/>
	</g>
</g>
<g>
	<g>
		<path class="st0" d="M502,375h-0.1c-5.5,0-10,4.5-10,10s4.5,10,10,10h0.1c5.5,0,10-4.5,10-10S507.5,375,502,375z"/>
	</g>
</g>
<g>
	<g>
		<path class="st0" d="M238.8,138.7h-16.6c3.9-8,6.1-16.9,6.1-25.9c0-32.4-26.3-58.7-58.7-58.7c-24.1,0-45.2,14.7-54.2,36
			c-5.7-2.8-12.1-4.2-18.6-4.2C73.2,85.8,54,105,54,128.6c0,9.5,3.1,18.6,8.9,26.1c1.9,2.5,4.8,3.9,7.9,3.9h168c5.5,0,10-4.5,10-10
			S244.4,138.7,238.8,138.7z M198.3,138.7h-122c-1.5-3.1-2.3-6.5-2.3-10c0-12.6,10.2-22.8,22.8-22.8c6.5,0,12.6,2.8,17,7.6
			c2.6,2.9,6.7,4,10.4,2.8c3.7-1.2,6.4-4.4,6.9-8.3c2.4-19.3,18.9-33.9,38.4-33.9c21.4,0,38.7,17.4,38.7,38.7
			C208.3,122.3,204.7,131.6,198.3,138.7z"/>
	</g>
</g>
</svg>
